<svg id="Home_select" data-name="Home select" xmlns="http://www.w3.org/2000/svg" width="22" height="22" viewBox="0 0 22 22">
  <path id="Path_97" data-name="Path 97" d="M0,0H22V22H0Z" fill="none"/>
  <path id="Path_98" data-name="Path 98" d="M5.545,17.2H16.455V8.362L11,3.464l-5.455,4.9ZM17.364,19H4.636a.9.9,0,0,1-.909-.9V10.018H1l9.388-8.432a.917.917,0,0,1,1.224,0L21,10.018H18.273V18.1A.9.9,0,0,1,17.364,19ZM6.909,11.814H8.727a2.273,2.273,0,0,0,4.545,0h1.818a4.091,4.091,0,0,1-8.182,0Z" fill="#1c2d41"/>
</svg>
