<svg id="LoginBG" xmlns="http://www.w3.org/2000/svg" xmlns:xlink="http://www.w3.org/1999/xlink" width="375" height="600" viewBox="0 0 375 600">
  <defs>
    <clipPath id="clip-path">
      <rect id="Rectangle_181" data-name="Rectangle 181" width="375" height="600" fill="#ff7300"/>
    </clipPath>
    <clipPath id="clip-path-2">
      <rect id="Rectangle_176" data-name="Rectangle 176" width="750" height="500" transform="translate(-6)" fill="none" stroke="#fff" stroke-width="1"/>
    </clipPath>
  </defs>
  <rect id="Rectangle_180" data-name="Rectangle 180" width="375" height="600" fill="#ff7300"/>
  <g id="Mask_Group_33" data-name="Mask Group 33" clip-path="url(#clip-path)">
    <g id="Group_111" data-name="Group 111" transform="translate(438 -155) rotate(90)" opacity="0.15">
      <g id="Group_110" data-name="Group 110" clip-path="url(#clip-path-2)">
        <g id="Group_109" data-name="Group 109">
          <path id="Path_400" data-name="Path 400" d="M70-25.333c-.668,12-1,41-21,62s-14,62,14,63,43,9,56,27,54,58,71,42,54-36,61-62,40-57,66-58,40,6,47,22,50,13,49,41-31,84-23,109,46,12,46-4-3-20,1-34,20-43,33-38,38,2,48-6,38-55,56-47,62,40,47,77-37,77-40,90,8,11,7,36-7,47,4,55,41,10,47-3,21-41,35-39,40-8,38-24,2-40,9-50,44-41,44-41v-229s-295.373,7.927-501,11c-45.274.676-80.2-18.12-112.667-18.667C105.289-44.773,70.669-37.334,70-25.333Z" fill="none" stroke="#fff" stroke-miterlimit="10" stroke-width="2"/>
          <path id="Path_401" data-name="Path 401" d="M-24.667,90C-12,82.669,26,135.667,16,147.667s-5,32-9,39-4,17,0,30,33,7,39-3,20-25,28-26,34,12,34,23,6,39-2,48-10,55-28,62-22,25-20,41,41,27,55,19,47-47,38-55-4-36,5-47,27-17,30-9,20-5,21,9-4,45,2,59,40,7,49-4,42-16,55-11,19,53,33,56,30-9,40-19,40-33,58-32,39-7,58,6,43,42,47,59,14,54,20,65,37,28,52,18,34-22,48-24,24,3,27,11-8,12,0,20,30,9,32-1,4-16,7-33,30-5,30-5v103H-36S-37.333,97.336-24.667,90Z" fill="none" stroke="#fff" stroke-miterlimit="10" stroke-width="2"/>
          <path id="Path_402" data-name="Path 402" d="M346.658,470.276c.873-4.517,2.435-15.444,7.01-23.277,5.194-8.894,13.376-14.725,12.666-19.333-1.333-8.667-14.806-7.351-18-17.333S343.812,393.281,337,385s-13.7-47.042-24.667-52-34-.667-42,3.333S249.668,349,227,351c-16.28,1.436-24.972-4.214-27.191-9.393-4.9-11.431,5.987-58.942,1.192-61.941s-8,3.334-16,2-17.176-1.66-21.261,3.334c-3.05,3.727-6.073,10.666-7.406,15.333s-1.381,14.387,1.31,17.86,5.548,6.142,4.776,13.557c-1.878,18.035-31.341,50.1-44.459,57.6C113.326,392,97,399,84.336,399S46.12,391.263,43.67,371.666c-3.085-24.682,11.154-52.715,30.707-60.319,6.488-2.523,11.6-22.736,14.348-33.595,2.9-11.482,8.76-28.217,7.611-45.419s-12.467-30.711-19.333-28-16.518,4.63-22.427,14.479c-5.962,9.936-18.465,26.854-30.24,26.854-12.024,0-17.333-4-22.666-22.666S3,185.1,3,174.333a340.51,340.51,0,0,1,2-36.667c.941-8.76-9.956-24.913-13.978-21.123S-25.6,536.667-25.6,536.667,228.872,530.78,323,508.333C345.186,503.043,345.887,474.267,346.658,470.276Z" fill="none" stroke="#fff" stroke-miterlimit="10" stroke-width="1"/>
          <path id="Path_403" data-name="Path 403" d="M98,13.667c-1,11-10,23-20,28s-15,17-12,29,27-1,39-2,25,19,29,29c0,0,2,16,12,24s27,8,32,0,21-20,24-30,10-20,5-26-16-18-18-22,3-15,11-17,13,14,21,10,23-13,25-21,4-19-4-28-123.333-7.668-130-4S99,2.667,98,13.667Z" fill="none" stroke="#fff" stroke-miterlimit="10" stroke-width="2"/>
          <g id="Group_93" data-name="Group 93">
            <path id="Path_404" data-name="Path 404" d="M170,336.334s3-8-3-17-4-16,1-22,20-11,23-2-2,29-1,35,1,24,11,28,20,2,27,0,18-2,20,3,1,13-2,20-19,6-22,15-14,16-26,13-14-19-26-23-16-13-13-20S170,336.334,170,336.334Z" fill="none" stroke="#fff" stroke-miterlimit="10" stroke-width="2"/>
            <path id="Path_405" data-name="Path 405" d="M205.671,400.038a14.9,14.9,0,0,1-3.42-.406c-2.568-.608-4.684-3.257-7.923-7.53-4.142-5.466-18.66-16.436-22.66-22.436s1.14-28.752,8.418-30.043,4.1,22.412,18.849,28a48.014,48.014,0,0,0,17.077,3.025c7.446,0,19.656-9.643,24.989-4.977s-.839,10.621-4.752,12.644-15.8,5.454-19.117,14.861C215.959,396.5,211.545,400.038,205.671,400.038Zm-34-90.372S175,299,181,298.333s6.666,3.333,4,9.333,0,14-4.667,13.334S169.668,313.666,171.668,309.666Z" fill="none" stroke="#fff" stroke-miterlimit="10" stroke-width="1"/>
          </g>
          <g id="Group_94" data-name="Group 94">
            <path id="Path_406" data-name="Path 406" d="M422-9.333s20,28,20,43,9,28,7,38-4,24,3,27,19-1,24-7,13-23,18-23,15-3,16,2,4,16-3,22-15,18-16,26-1,15,3,18,19-5,25-12,16-24,24-30,26-22,37-18,29-1,37-12,13-34,22-46,20-26,6-32S421-10.333,422-9.333Z" fill="none" stroke="#fff" stroke-miterlimit="10" stroke-width="2"/>
            <path id="Path_407" data-name="Path 407" d="M501.409,118.979c-1.931-2.312,6.105-14.238,11.864-19.413,10.342-9.29,7.411-23.844,6.159-30.059-.08-.4-.156-.774-.221-1.116-.483-2.534-2.962-10.8-14.549-10.8a51.749,51.749,0,0,0-6.581.552c-1.2.154-2.562.33-3.2.33-8.378,0-17.12,22.364-24.211,26.28s-10.8-1.885-8.968-11.5c1.438-7.529-.8-15-2.966-22.23-1.7-5.663-3.45-11.519-3.45-17.252,0-10.188-6.081-23.543-11.73-33.751,32.059-1.7,107.687-4.829,155.949-4.829,26.675,0,33,1.041,34.288,1.353.076.037.143.072.206.105-.791,3.573-6.26,11.205-9.308,15.456l-.656.917c-5.175,7.231-8.809,16.975-12.325,26.4-2.745,7.359-5.584,14.969-8.5,19.167-3.616,5.211-11.872,9.139-19.206,9.139h0a13.861,13.861,0,0,1-4.829-.756,19.064,19.064,0,0,0-6.823-1.221c-12.109,0-25.127,10.706-33.74,17.79-1.193.982-2.268,1.868-3.2,2.6-6.115,4.808-12.253,13.92-17.666,21.96-2.463,3.657-4.789,7.111-6.461,9.156C508.973,120.088,503.341,121.291,501.409,118.979Z" fill="none" stroke="#fff" stroke-miterlimit="10" stroke-width="1"/>
            <path id="Path_408" data-name="Path 408" d="M464,8.667s7,21,8,31,11,8,17,5,30-8,34-2,6,18,10,21,8,2,13-2,18-16,25-14,19,0,24-6S611,6.333,609,0,478.5-8.333,472.5-5.833,462,1.667,464,8.667Z" fill="none" stroke="#fff" stroke-miterlimit="10" stroke-width="1"/>
            <path id="Path_409" data-name="Path 409" d="M482.9,7.357c-1.022,7.81.511,22.87,5.106,26.775s30.127-7.809,35.233-1.673,10.723,17.292,16.34,15.618S553.363,36.921,560,36.363s15.829-6.136,18.383-14.5-9.7-16.176-17.872-15.618-41.361-1.116-48-4.463S483.918-.452,482.9,7.357Z" fill="none" stroke="#fff" stroke-miterlimit="10" stroke-width="1"/>
            <path id="Path_410" data-name="Path 410" d="M520,14.167c-1,3-2.5,8,3.5,11s10.5,10.5,15,12,8.5-1.5,14-5.5,4-12,0-14.5S521,11.167,520,14.167Z" fill="none" stroke="#fff" stroke-miterlimit="10" stroke-width="1"/>
          </g>
          <g id="Group_95" data-name="Group 95">
            <path id="Path_411" data-name="Path 411" d="M647,191.667c-6,10-25,23-35,36s-19,23-16,31,9,22,5,30-6,35-6,42,3,7,9,10,18,1,22-7,12-21,17-32,10-18,18-21,19-13,21-21,4-26,12-38,18-31,13-40-13-16-21-13S653,181.667,647,191.667Z" fill="none" stroke="#fff" stroke-miterlimit="10" stroke-width="2"/>
            <path id="Path_412" data-name="Path 412" d="M605.813,323.7c-3.709-4.54,2.4-26.368,4.854-31.274,5.528-11.056-7.065-26.031-6.162-33.51s8.269-14.9,12.613-20.464c1.092-1.4,2.213-2.833,3.347-4.307,4.19-5.449,10.563-11.228,16.725-16.818,7.44-6.747,14.341-14.219,21.629-20.578s26.1-20.1,32.066-9.816,2.626,11.437-8.508,28.139c-7.248,10.871-11.778,21.595-13.087,31.411s-6.048,22.295-11.955,24.51c-12.137,4.552-16.565,9.962-21.419,20.642-2.823,6.211-12.434,25.522-16.36,28.139S609.522,328.239,605.813,323.7Z" fill="none" stroke="#fff" stroke-miterlimit="10" stroke-width="1"/>
            <path id="Path_413" data-name="Path 413" d="M621,247.667s-10,8.667-7.333,16,5.332,16.667,2.666,24.667-5.332,13.333-.666,15.333S627,286.334,630.334,280.334,639.668,267,649.668,259s13.334-20,12-30.666-7.333-14.667-12-9.334S621,247.667,621,247.667Z" fill="none" stroke="#fff" stroke-miterlimit="10" stroke-width="1"/>
            <path id="Path_414" data-name="Path 414" d="M627.668,251.667S643,232.334,645.668,237,641,254.334,637,258.334s-6.667,13.333-10,13.333S623.668,255.667,627.668,251.667Z" fill="none" stroke="#fff" stroke-miterlimit="10" stroke-width="1"/>
          </g>
          <path id="Path_415" data-name="Path 415" d="M675.667,299.667s18,0,24.667-6.667,3.332-10.666,2.666-20-1.333-15.334-7.333-8.667-10.666,18-15.333,21.334S671,297.667,675.667,299.667Z" fill="none" stroke="#fff" stroke-miterlimit="10" stroke-width="1"/>
          <path id="Path_416" data-name="Path 416" d="M700.334,241s2.667-10,4-14.667,10-6.667,8,0-.667,14.667-4.667,20S699,245,700.334,241Z" fill="none" stroke="#fff" stroke-miterlimit="10" stroke-width="1"/>
          <g id="Group_96" data-name="Group 96">
            <path id="Path_417" data-name="Path 417" d="M634.334,149c-1.334,5.333-2.666,15.333-10,26.667s-4.668,18-5.334,22.666,6,4,10,0S641.666,181.667,651,175s35.333-23.333,50-18,20.667,21.333,16.667,30.667-7.333,21.333-4,24.666S718.333,223,723,219s17.334-16.667,26.667-25.333,6.667-25.333,6.667-40.667V-22.333h-92S665.666,16.334,661,27s-8,24-16,28.667S629.668,78.334,624.334,85s1.332,14,6.666,24S635.668,143.667,634.334,149Z" fill="none" stroke="#fff" stroke-miterlimit="10" stroke-width="1"/>
            <path id="Path_418" data-name="Path 418" d="M677-10.333c-.666,8,1.334,38-4.666,52s-14.666,32.666-22,38S633,97,639,107.667s8.667,30,6.667,38.666-.667,16.667,8,15.334S683,149,694.334,149s26,9.334,28,16,.666,18.667.666,26.667,4.666,10,10,6.666,15.334-12.666,17.334-24.666,0-181.334,0-181.334S677.666-18.333,677-10.333Z" fill="none" stroke="#fff" stroke-miterlimit="10" stroke-width="1"/>
            <path id="Path_419" data-name="Path 419" d="M689,8.333s-1.333,44-5.333,56-17.334,25.333-26.667,30-8,18.667-5.333,25.334,6.666,20,5.333,26,3.333,10,12,6,22.666-10.667,34-8,26.666,14,26,25.333,3.668,12,9.334,7.333S744,138.334,744,125s5.666-108.335,0-116.668S689.666-9.667,689,8.333Z" fill="none" stroke="#fff" stroke-miterlimit="10" stroke-width="1"/>
            <path id="Path_420" data-name="Path 420" d="M697,29.667S700.334,65,698.334,75s-14.666,17.334-22,20-16.667,5.334-14.667,10S665,115.666,669,116.333s12.666-2,12,4-8,14.667-7.333,19.334,14-4,22.667-3.334S719,141,725,148.333s6,20,9.334,20,4-18.666,2.666-31.333-10.667-24-16-33.333,2-22,5.334-30.667,13.334-26.667,10-42.667S730.334,7,719.667,5c-5.913-1.108-15.332-2.6-20,2C695.914,10.7,696.108,18.97,697,29.667Z" fill="none" stroke="#fff" stroke-miterlimit="10" stroke-width="1"/>
            <path id="Path_421" data-name="Path 421" d="M705.667,18.333s-1.333,6,.667,20.667-.666,29.333,4,33.333S723.666,68.334,727,57s5.334-24.667,3.334-31.333S707,9,705.667,18.333Z" fill="none" stroke="#fff" stroke-miterlimit="10" stroke-width="1"/>
            <path id="Path_422" data-name="Path 422" d="M713.667,32.333S715,61.667,719.667,59,727,45.666,726.334,38.333,713,22.333,713.667,32.333Z" fill="none" stroke="#fff" stroke-miterlimit="10" stroke-width="1"/>
            <path id="Path_423" data-name="Path 423" d="M698.334,97.667c-3.334.667-10,3.333-7.334,14s-.666,18.666,6.667,18,20,1.333,24,6S731,135,727.667,125,719,111.666,715,106.333,701.668,97,698.334,97.667Z" fill="none" stroke="#fff" stroke-miterlimit="10" stroke-width="1"/>
          </g>
          <g id="Group_97" data-name="Group 97">
            <path id="Path_424" data-name="Path 424" d="M744,254.333s-19.666,8.667-19,28-2,40-14.667,42.667-36,6-44.667,18S639,387,624.333,385s-35.333,1.333-38,16.667S595,451,611,456.333s40-18,54-20.666,35.333,1.332,39.333,10.666,13.334,12,18.667,3.334,7.334-26,18-34.667a135.967,135.967,0,0,0,19.333-20S749.667,256.333,744,254.333Z" fill="none" stroke="#fff" stroke-miterlimit="10" stroke-width="2"/>
            <path id="Path_425" data-name="Path 425" d="M729.666,301s2.666,26-10,30.667-28,12.666-35.333,14.666S667,359,662.333,369s-16,24-26.667,25.333S604.333,397,606.333,411s22,22.667,34,16,40.667-12,52-8,20-.667,28-10,25.333-25.334,26-42.667S750,317.667,747,305.667,731,285,729.666,301Z" fill="none" stroke="#fff" stroke-miterlimit="10" stroke-width="1"/>
            <path id="Path_426" data-name="Path 426" d="M731.666,331.667c-4,5.333-14,8.666-22.666,12S681.666,351,675.666,363,659,390.334,665,397s15.332,4,26.666,7.333,24.667,2,34.667-12,15.333-32,14-42.666S735.666,326.333,731.666,331.667Z" fill="none" stroke="#fff" stroke-miterlimit="10" stroke-width="1"/>
            <path id="Path_427" data-name="Path 427" d="M635.666,403.667c-4.666.666-18.666,2-16.666,8.666s12,11.333,18.666,8,11.334-6.666,10.667-12.666S640.332,403,635.666,403.667Z" fill="none" stroke="#fff" stroke-miterlimit="10" stroke-width="1"/>
            <path id="Path_428" data-name="Path 428" d="M688.534,360.68c-3.608,4.309-7.94,6.462-10.827,18.67s6.5,10.771,13.715,12.925,12.991,0,18.766-6.462,13.715-15.08,9.384-24.415S692.143,356.372,688.534,360.68Z" fill="none" stroke="#fff" stroke-miterlimit="10" stroke-width="1"/>
          </g>
          <g id="Group_98" data-name="Group 98">
            <path id="Path_429" data-name="Path 429" d="M751.666,449c-8.667-6.666-11.474,21.373-15.333,32s-7.356,14-20,14c-7.8,0-20.636,1.505-27.4-5.263-9.581-9.581-.587-17.63-7.263-24.071S640.228,476.181,631,482.333c-4.691,3.128-14,9.334-26,12s-37.516-10.778-44-22.666c-7.407-13.58-19.191-65.907-21.733-76.709C536.5,383.206,524.333,363,517.666,357S500.333,342.334,495,346.334,499,367,506.333,371c3.648,1.989,18,18,16,44-.874,11.361-4.915,25.427-9.405,38.214-5.784,16.476-8.226,56.786,4.739,67.119S755,536.667,755,536.667,760.333,455.667,751.666,449Z" fill="none" stroke="#fff" stroke-miterlimit="10" stroke-width="1"/>
            <path id="Path_430" data-name="Path 430" d="M530.333,415s2.668,16.666-2.666,27.333S517,469.667,524.333,477.667s27.333,2,26-14-12-43.334-13.333-51.334S529.666,407,530.333,415Z" fill="none" stroke="#fff" stroke-miterlimit="10" stroke-width="1"/>
            <path id="Path_431" data-name="Path 431" d="M534.333,447.667C531.667,449,525,465,533,469s13.334.666,12.667-8.667S537,446.334,534.333,447.667Z" fill="none" stroke="#fff" stroke-miterlimit="10" stroke-width="1"/>
          </g>
          <g id="Group_99" data-name="Group 99">
            <path id="Path_432" data-name="Path 432" d="M371,383.667c6-7,24-15,30-17s30-28,43-29,30,3,36,12,11,25,19,31,13,22,10,34-11,30-9,41-7,29-16,31-32-10-41-6-48-6-59-3-14-6-19-10,4-22,11-25,36,0,42-7,3-21-7-27-22,8-29,9S368.868,414.335,364.935,405,367.421,387.844,371,383.667Z" fill="none" stroke="#fff" stroke-miterlimit="10" stroke-width="2"/>
            <path id="Path_433" data-name="Path 433" d="M394.1,395.633c2.925-.932,2.513-9.57-1.6-10.8s-10.945,1.959-13.162,4.113-3.816,7.888-1.646,12.34S391.176,396.565,394.1,395.633Z" fill="none" stroke="#fff" stroke-miterlimit="10" stroke-width="1"/>
            <path id="Path_434" data-name="Path 434" d="M479.058,471.042c7.942-2.709,11.755-9.549,13.458-16.073,2.456-9.414,7.087-30.993,7.425-32.01,1.308-3.928,2.544-7.639,3.339-10.718,2.169-8.4-1.831-20.18-6.506-23.574-7.28-5.287-11.831-14.28-16.232-22.978a98.338,98.338,0,0,0-5.79-10.475c-2.549-3.7-12.623-7.7-24.454-7.7-1.145,0-2.27.041-3.344.121-5.288.393-19.892,12.418-26.126,17.553-7.285,6-7.7,18.791-5.612,23.193,1.352,2.848,15.7,24.409,17.2,33.4,1.293,7.714-.627,15.146-5.27,20.389-2.929,3.308-10.941,14.824-18.516,12.158s-20.658-7.333-26.856-2.666c-8.078,6.084-.427,14.859,8.394,15.43s18.036-3.971,27.414-2.764c8.337,1.073,14.723,7.293,20.352,7.293,2.039,0,8.7-1.781,12.045-1.781C456.58,469.845,471.115,473.751,479.058,471.042Z" fill="none" stroke="#fff" stroke-miterlimit="10" stroke-width="1"/>
            <path id="Path_435" data-name="Path 435" d="M390.334,421.913s7.333-8.331,14-7.573,16,12.116,7.333,17.418-16,6.059-20.667,3.03S386.334,426.458,390.334,421.913Z" fill="none" stroke="#fff" stroke-miterlimit="10" stroke-width="1"/>
            <path id="Path_436" data-name="Path 436" d="M441.667,367.667c-8,4.666-20,12.666-10,24s16,26.666,14.667,35.333S437,451.667,445,455s27.334,7.333,34.667,0,10-24,15.333-34.667,2-19.333-3.333-26S477,377,473.667,367.667,449.667,363,441.667,367.667Z" fill="none" stroke="#fff" stroke-miterlimit="10" stroke-width="1"/>
            <path id="Path_437" data-name="Path 437" d="M459.667,376.333c-4.667,1.334-14.666,6.667-8,17.334S465,423.667,464.334,431,471,443,477,437s12.667-16.667,10-28.667-9.333-18-12-24.666S464.334,375,459.667,376.333Z" fill="none" stroke="#fff" stroke-miterlimit="10" stroke-width="1"/>
          </g>
          <g id="Group_100" data-name="Group 100">
            <path id="Path_438" data-name="Path 438" d="M14,259.667c2,4,5,4,13,2s18-3,20-10,9-21,15-25,20-10,20,0-4,30-9,38-16,33-22,42-15,23-17,34-3,31-8,33-13-3-19-9-17-18-18-27-1-90-1-90,11-4,17,0S12,255.667,14,259.667Z" fill="none" stroke="#fff" stroke-miterlimit="10" stroke-width="2"/>
            <path id="Path_439" data-name="Path 439" d="M55.842,251.959s5.66-18.1,12.693-20.564,8.514,1.753,4.524,12-10.721,26.192-15.014,22.958S52.272,258.9,55.842,251.959Z" fill="none" stroke="#fff" stroke-miterlimit="10" stroke-width="1"/>
            <path id="Path_440" data-name="Path 440" d="M-6,261c5-4.667,12.336-4.667,17,4.666S25.67,277,34.336,272.333s16-.667,17.334,5.333-4.667,18-13.334,24S23,322.333,21.67,334.333s2.667,26.667-6,21.333S-1.327,349-3.664,333-11,265.666-6,261Z" fill="none" stroke="#fff" stroke-miterlimit="10" stroke-width="1"/>
            <path id="Path_441" data-name="Path 441" d="M.336,267s8,2,12,11.333,11.334,7.333,15.334,3.333,18-8,15.333-.666-9.333,15.333-16.667,22-8,11.333-10,22.666S14.336,347,7,337a44.8,44.8,0,0,1-8.667-29.334C-1,299.666-6.33,267,.336,267Z" fill="none" stroke="#fff" stroke-miterlimit="10" stroke-width="1"/>
            <path id="Path_442" data-name="Path 442" d="M4.336,299s-2,12,1.334,18,6-.667,8-7.334a20.822,20.822,0,0,0-2.667-18C7.67,287,3.67,295,4.336,299Z" fill="none" stroke="#fff" stroke-miterlimit="10" stroke-width="1"/>
          </g>
          <g id="Group_101" data-name="Group 101">
            <path id="Path_443" data-name="Path 443" d="M-10,393.667s26-2,33,5,8,16,12,26,17,14,20,8,18-14,28-11,18,30,17,43,2,31,5,44H-14Z" fill="none" stroke="#fff" stroke-miterlimit="10" stroke-width="2"/>
            <path id="Path_444" data-name="Path 444" d="M-6,411c4.668-4.667,25-8,28.337,6S33,453.666,49.67,455.666,75,431,82.336,437.666s4,20,4.667,36S99,503,91.67,504.333-6,500-6,500-10.667,415.666-6,411Z" fill="none" stroke="#fff" stroke-miterlimit="10" stroke-width="1"/>
            <path id="Path_445" data-name="Path 445" d="M3,427s18,13.333,22,30,10.666,30,25.333,30S65.67,463.667,73.67,460.333s6,19.334,7.333,28-8.666,13.334-18,14-69.333,0-69.333,0S-12.33,418.332,3,427Z" fill="none" stroke="#fff" stroke-miterlimit="10" stroke-width="1"/>
            <path id="Path_446" data-name="Path 446" d="M3,449.666c5.333-2,10,5.334,14,18.667s8.666,20-2.667,22S3.67,489,1.67,477.666-2.33,451.666,3,449.666Z" fill="none" stroke="#fff" stroke-miterlimit="10" stroke-width="1"/>
          </g>
          <path id="Path_447" data-name="Path 447" d="M42.336,403.666s2,16,8,14.667,9.333-6.667,6-12.667S39,395.666,42.336,403.666Z" fill="none" stroke="#fff" stroke-miterlimit="10" stroke-width="1"/>
          <g id="Group_102" data-name="Group 102">
            <path id="Path_448" data-name="Path 448" d="M112.335,423c0,6,2,16,8,29.334s2.667,25.333,3.334,33.333S137,513,152.336,513s116-7.333,132-7.333S325,480.332,329.669,457,344.335,440.332,345,431s-2-16.666-8-28.666-10-18-12.667-28.667S313,347,299.669,345s-36,4-36,21.333-6,42-16,43.333-16,12-34.667,12.667S183.669,405,175.669,397s-13.333-8-22-6.667-23.334,12-31.334,15.333S112.335,417,112.335,423Z" fill="none" stroke="#fff" stroke-miterlimit="10" stroke-width="2"/>
            <path id="Path_449" data-name="Path 449" d="M169,404.333s13.334,9.334,20.667,20S211.668,443,229,433s23.334-12.666,30.667-13.333,15.333-16.667,14-32-4-27.333,4.666-32.666,19.334-6.667,26,2.666,7.334,26,12,40S329.668,420.332,321,435s0,30.668-12,45.334S265,500,235,500s-79.333,5-89.333-5.667S142.335,472.332,133,455s-20-35.333-8.667-44S143,410.333,151,406.333,163,398.333,169,404.333Z" fill="none" stroke="#fff" stroke-miterlimit="10" stroke-width="1"/>
            <path id="Path_450" data-name="Path 450" d="M293,379c10.02-1.9,22,30.666,20,46s-5.333,32-7.333,47.334-45.334,24-63.334,20.666-68.666,7-82.666,3.334S147,484.333,146.336,469,145,453.666,133.669,439s-4-19.333-4-19.333,5-5,18.332-.333S165.334,412,174,424s12.667,35.334,48,26.667,46-8.668,57.333-21.334S280.67,381.332,293,379Z" fill="none" stroke="#fff" stroke-miterlimit="10" stroke-width="1"/>
            <path id="Path_451" data-name="Path 451" d="M154,435.333c-3.007,3.437,1.333,16.668,2.667,25.334s-4.667,20.666,2.666,26.666,23.333-4.667,34-6,48.667-4.667,64.667,0,38.667-5.332,40-18.666-4.81-22.657-20-19.334c-21.333,4.667-44,22-58.667,23.334S188,462.667,180.668,452,158.668,430,154,435.333Z" fill="none" stroke="#fff" stroke-miterlimit="10" stroke-width="2"/>
            <path id="Path_452" data-name="Path 452" d="M252,465.333c1.333,8.667,13.334,8.666,24,6s10-11.334,5.333-16S250.668,456.666,252,465.333Z" fill="none" stroke="#fff" stroke-miterlimit="10" stroke-width="1"/>
            <path id="Path_453" data-name="Path 453" d="M175.334,468c-4.388-2.552-10.183-4.605-12.64,4.5s2.27,14.382,6.726,10.9S179.723,470.552,175.334,468Z" fill="none" stroke="#fff" stroke-miterlimit="10" stroke-width="1"/>
            <path id="Path_454" data-name="Path 454" d="M292,394a69.944,69.944,0,0,1,.667,16c-.667,8.667-2.667,12.667,4.666,14.667s12-7.334,8.667-16.667-5.333-16-8-20S290.668,388,292,394Z" fill="none" stroke="#fff" stroke-miterlimit="10" stroke-width="1"/>
          </g>
          <path id="Path_455" data-name="Path 455" d="M405.334,177.336c-4,13.333-15.333,33.333-6,44S430,226,430,215.336s-4-26,1.333-40,20.667-34.667,16-40.667S424,126,418,140.669A344.543,344.543,0,0,0,405.334,177.336Z" fill="none" stroke="#fff" stroke-miterlimit="10" stroke-width="1"/>
          <path id="Path_456" data-name="Path 456" d="M409.334,187.336c-2.667,6-12,21.333-4.667,26.666s16.667,6.667,17.334-2.666S424.668,196,421.334,190,412,181.336,409.334,187.336Z" fill="none" stroke="#fff" stroke-miterlimit="10" stroke-width="1"/>
          <path id="Path_457" data-name="Path 457" d="M422.182,146.479s7.382-15.494,15.585-11.067,4.922,6.64-2.461,15.494S418.08,153.857,422.182,146.479Z" fill="none" stroke="#fff" stroke-miterlimit="10" stroke-width="1"/>
          <path id="Path_458" data-name="Path 458" d="M471.688,105.657c4.971-4.083,14.359-12.831,16.569-20.413s11.054-10.5,13.263-5.832,1.649,11.082-4.427,15.164-16.664,15.564-15.462,23.98-1.8,18.034-12.024,13.827C462.881,129.613,466.717,109.74,471.688,105.657Z" fill="none" stroke="#fff" stroke-miterlimit="10" stroke-width="1"/>
          <path id="Path_459" data-name="Path 459" d="M420,7.335S434,22,433.334,34.669,434.667,59.336,438,66s-.667,22,2,30-9.333,16-14.667,15.334-2.667-18.667-16.667-30S384,74,376,64s-37.334-52.667-65.334-39.333-54.667,26.667-62,46.667-10,44.666-31.333,59.333-34,30-43.333,27.333-26-12.666-16.667-16,18.668-5.333,24-13.333,10.667-13.334,19.334-18,18.666-20,18.666-30S215.334,54,222.667,50s32-16.667,36-31.334,14-31.332,32-32.666,58.667-2.667,78-3.333S408.667-12.664,420,7.335Z" fill="none" stroke="#fff" stroke-miterlimit="10" stroke-width="1"/>
          <path id="Path_460" data-name="Path 460" d="M196.641,37.727s5.1-6.126,8.929-1.225,7.654,9.189,3.189,12.252S193.452,47.529,196.641,37.727Z" fill="none" stroke="#fff" stroke-miterlimit="10" stroke-width="1"/>
          <path id="Path_461" data-name="Path 461" d="M349.334,18.668s16,12.667,22,24,9.334,22.667,20,24.667,20,4,25.333,14.666S420,103.336,428,99.336s4-14,3.333-23.334-6.667-16-4.667-30-4-29.334-14-40S375.334-10.665,362-9.331,332,4,349.334,18.668Z" fill="none" stroke="#fff" stroke-miterlimit="10" stroke-width="1"/>
          <path id="Path_462" data-name="Path 462" d="M355.334,9.335S368,20,374.667,34s9.333,29.334,22,27.334,14.667,4.666,20,9.333,8.667-1.333,5.334-15.333-.667-14-3.334-27.334S394-3.331,381.334-3.331,350-1.331,355.334,9.335Z" fill="none" stroke="#fff" stroke-miterlimit="10" stroke-width="2"/>
          <path id="Path_463" data-name="Path 463" d="M374.667,16s6.667,3.333,8.667,16,4,25.334,13.333,21.334S412,56.669,414,52.669s1.333-17.333-4-27.333-16.667-20.667-24-20S368.667,6.668,374.667,16Z" fill="none" stroke="#fff" stroke-miterlimit="10" stroke-width="1"/>
          <path id="Path_464" data-name="Path 464" d="M388,20.669c-1.333,4,0,21.333,7.334,24s10.666-3.334,8-11.334S389.334,16.668,388,20.669Z" fill="none" stroke="#fff" stroke-miterlimit="10" stroke-width="1"/>
          <path id="Path_465" data-name="Path 465" d="M207.113,115.525c-5.142,3.566-10.888,6.483-19.321,14.309s-8.621,12.829-14.272,13.245-7.738,5.973-.281,7.5,13.9-3.238,21.683-10.463,23.051-13.543,24.652-22.877S212.256,111.959,207.113,115.525Z" fill="none" stroke="#fff" stroke-miterlimit="10" stroke-width="1"/>
          <path id="Path_466" data-name="Path 466" d="M226.653,57.469c-1.986,6.408.662,14.738-1.324,21.786s0,16.661,5.959,14.1,9.932-20.5,16.553-30.116S263.732,42.09,279.623,34.4s38.4-16.657,41.044-23.066S310.743-3.4,299.487-4.686,275.65-5.968,272.34,7.488s-8.608,22.428-16.553,29.476S228.64,51.062,226.653,57.469Z" fill="none" stroke="#fff" stroke-miterlimit="10" stroke-width="1"/>
          <path id="Path_467" data-name="Path 467" d="M283.472,0c-4.138,3.334-2.044,8-5.452,16s3.408,10.667,14.312,5.334S310.732,12,306.644,6,287.609-3.334,283.472,0Z" fill="none" stroke="#fff" stroke-miterlimit="10" stroke-width="1"/>
          <path id="Path_468" data-name="Path 468" d="M232.667,58.669s-1.333,2.666-2,11.333.666,14,3.333,8.667S241.334,66,241.334,59.336,234,54.669,232.667,58.669Z" fill="none" stroke="#fff" stroke-miterlimit="10" stroke-width="1"/>
          <path id="Path_469" data-name="Path 469" d="M79.334,82a38.062,38.062,0,0,0,17.334-2c9.333-3.333,15.333-4,20,3.334s8,24,15.333,33.333,15.333,20,9.333,20.667S120.668,120,114.668,112s-18-14.667-28-15.333-28-6-26-12S70,80,79.334,82Z" fill="none" stroke="#fff" stroke-miterlimit="10" stroke-width="1"/>
          <path id="Path_470" data-name="Path 470" d="M84,48c-4.667,3.334-12,13.334-2,14s27.333-6,37.333,4.667,19.334,20,22.667,32,6.666,18,15.333,18.667,27.334-12,28.667-30.667S184.668,62,178,54s0-16.666,3.333-24.666,5.333-13.334,12-14S208,14,212.668,22s8.666,9.334,15.333,0,5.333-24.666-2-28.666-42.667-2-53.333-3.334-48.667-3.333-54,0S111.334.668,108,12.668,100.667,36,95.334,39.336,88.668,44.669,84,48Z" fill="none" stroke="#fff" stroke-miterlimit="10" stroke-width="1"/>
          <path id="Path_471" data-name="Path 471" d="M119.334,22s0,10.667-5.333,18.667,1.333,7.333,14.667,16S146,75.336,151.334,85.336,170,94.669,170,80s-8.667-28-4.667-41.333S180,6,190,5.335s6-7.333-.667-10S148-2,138.668-3.331,118,7.335,119.334,22Z" fill="none" stroke="#fff" stroke-miterlimit="10" stroke-width="2"/>
          <g id="Group_103" data-name="Group 103">
            <path id="Path_472" data-name="Path 472" d="M28.667,116s10.666,20,2.666,30-13.334,18-12,28-8.667,24.667,2,29.334,18-18,32.667-24.667,20-9.334,33.333-2,20,19.333,28,8.667S118.667,146.669,112,134s-26-22.666-36-22.666-22,6-28.667-.667S24,104.669,28.667,116Z" fill="none" stroke="#fff" stroke-miterlimit="10" stroke-width="1"/>
            <path id="Path_473" data-name="Path 473" d="M44,124c-1.333,5.334,10,15.334,2,23.334s-16.667,19.333-13.333,27.333,12-6,22.666-8.667S76,159.336,84.667,166s14,18,19.333,10.667,4.667-24-4-36-20.667-20-29.333-19.333S45.334,118.669,44,124Z" fill="none" stroke="#fff" stroke-miterlimit="10" stroke-width="1"/>
            <path id="Path_474" data-name="Path 474" d="M57.333,136.669S57.334,147.336,54,152s.667,9.334,10.667,5.334,18.667-2.667,23.333,4,10.666,2.666,9.333-6S90,138.669,84,133.336,56,132,57.333,136.669Z" fill="none" stroke="#fff" stroke-miterlimit="10" stroke-width="1"/>
            <path id="Path_475" data-name="Path 475" d="M66.667,139.336C61.333,142,62,150.669,70,150s17.335,2,14.668-4S72,136.669,66.667,139.336Z" fill="none" stroke="#fff" stroke-miterlimit="10" stroke-width="1"/>
          </g>
          <g id="Group_104" data-name="Group 104">
            <path id="Path_476" data-name="Path 476" d="M29.333-18.664s26,20,16.667,33.332S28.666,30,23.333,48.669s2,42.666-5.333,50S4.667,98-10,85.336s-23.334-44-20.667-62.667S-19.333-19.331-4-24.664,29.333-18.664,29.333-18.664Z" fill="none" stroke="#fff" stroke-miterlimit="10" stroke-width="2"/>
            <path id="Path_477" data-name="Path 477" d="M21.333-13.331S48-.665,38.667,10.668s-23.334,24-23.334,36,4.666,26-2,34-16.667,2-24-14.667S-23.333,11.335-12-2.664,14.666-16.665,21.333-13.331Z" fill="none" stroke="#fff" stroke-miterlimit="10" stroke-width="1"/>
            <path id="Path_478" data-name="Path 478" d="M-12,13.335C-13.333,22-16,46-6,60.669s15.333,14,15.333.667,0-21.334,8-31.334,14-22.669,8-30-12.667-10.665-22-5.332S-10.666,4.669-12,13.335Z" fill="none" stroke="#fff" stroke-miterlimit="10" stroke-width="1"/>
          </g>
          <path id="Path_479" data-name="Path 479" d="M116,236s2,22.667-4.667,31.334-6.667,22.666-10,34S90.667,326,82,330s-16,27.334,1.333,35.334S110,376.669,120,362.669s30-24,24.667-36S134.667,302,140,287.336s11.334-36,4-49.334S115.334,218,116,236Z" fill="none" stroke="#fff" stroke-miterlimit="10" stroke-width="1"/>
          <path id="Path_480" data-name="Path 480" d="M103.333,316c-.666,8-7.333,14-14.666,19.334S77.333,348,86.667,356s16.667,14.667,25.333,6.667,12-13.334,19.333-20,6.666-10.667,2-21.333S124,302.669,116,301.336,104,308,103.333,316Z" fill="none" stroke="#fff" stroke-miterlimit="10" stroke-width="1"/>
          <path id="Path_481" data-name="Path 481" d="M113.333,310c-8,2.666-9.333,20.666-16,22.666s-10.667,10-4.667,16,13.333,8,20,0S126,338.668,124,328,121.333,307.335,113.333,310Z" fill="none" stroke="#fff" stroke-miterlimit="10" stroke-width="1"/>
          <path id="Path_482" data-name="Path 482" d="M109.334,324c-2.667.666-2.667,7.333-8,10s-6,10.666,0,8.666S114.667,338,114,331.335,112,323.335,109.334,324Z" fill="none" stroke="#fff" stroke-miterlimit="10" stroke-width="1"/>
          <path id="Path_483" data-name="Path 483" d="M122.667,238.669c-2,8,5.333,15.333.666,22S112,281.336,118,286s14.667.667,16.667-8.666,8-21.334,4-30.667S124.667,230.669,122.667,238.669Z" fill="none" stroke="#fff" stroke-miterlimit="10" stroke-width="1"/>
          <g id="Group_105" data-name="Group 105">
            <path id="Path_484" data-name="Path 484" d="M136.667,170c-6,5.334,4,17.334-2.667,25.334s5.334,12,16,28,25.334,5.333,44,12.666,39.333,28.667,36,51.334,10.666,44,28.666,33.333S301.333,298,312,304s20,12.667,29.333,2,20-54,11.333-68S340,210,331.333,223.336s-22,28-33.333,19.333-30.667-36.667-50.667-38-37.333-16-46.666-21.333-17.333,3.333-30.667,2S142.667,164.669,136.667,170Z" fill="none" stroke="#fff" stroke-miterlimit="10" stroke-width="2"/>
            <path id="Path_485" data-name="Path 485" d="M149.333,199.336c2.667,9.333,8,18.666,23.334,18.666s40.666,10.667,48,18.667S242,282,242,294.667s4.333,23,15,19S299.333,284,313.333,291.336s19.333-8,18-25.334-10-16.666-20.667-12.666-23.333-1.334-30-9.334-15.333-24.666-30-28.666-38-8-47.333-17.334-14-8-24.666-6-21.333,0-24.667-4.666S146.666,190,149.333,199.336Z" fill="none" stroke="#fff" stroke-miterlimit="10" stroke-width="1"/>
            <path id="Path_486" data-name="Path 486" d="M160.667,202c2,6,4.666,8.667,16.666,10s17.333-7.333,12.666-11.333-13.333.667-18-.667S158.667,196,160.667,202Z" fill="none" stroke="#fff" stroke-miterlimit="10" stroke-width="1"/>
            <path id="Path_487" data-name="Path 487" d="M216.667,222s14,6.667,18,20,16,30.667,14.667,38-3.333,18,3.333,18,16-8,27.334-11.333,18-7.333,27.333-4.667,13.333-6.666,11.333-14.666-11.333-8.667-22-6.667S275.333,255.336,268,248s-15.334-20-23.334-24S229.333,216,224,212.669,207.333,212.669,216.667,222Z" fill="none" stroke="#fff" stroke-miterlimit="10" stroke-width="1"/>
            <path id="Path_488" data-name="Path 488" d="M246,253.335s8.666,10,8,19.334-3.334,18.665,2.666,17.333,16-6.668,15.334-14-5.333-12.666-10.667-21.333S241.333,243.335,246,253.335Z" fill="none" stroke="#fff" stroke-miterlimit="10" stroke-width="1"/>
          </g>
          <g id="Group_106" data-name="Group 106">
            <path id="Path_489" data-name="Path 489" d="M284.666,137.336c0,8-4,25-12,29s-16,23-2,31,26,33,38,33,23-30,28-42,19-34,16-43-6-21-14-23-17,12-24,14-11-17-19-15S284.666,129.336,284.666,137.336Z" fill="none" stroke="#fff" stroke-miterlimit="10" stroke-width="2"/>
            <path id="Path_490" data-name="Path 490" d="M294.034,132.795c-1.821,2.429-3.035,4.249-3.035,12.142s9.106,7.285,11.535,3.036,3.035-6.071,0-10.928S295.855,130.367,294.034,132.795Z" fill="none" stroke="#fff" stroke-miterlimit="10" stroke-width="1"/>
            <path id="Path_491" data-name="Path 491" d="M324.332,140.337S319.665,156.337,311,161s-20,9.333-26,9.333S271,173,270.332,181.67s5.334,13.334,11.334,16,16.666,16,18.666,22,12,11.333,18-3.333,8.667-28.667,16-40S345.665,155.67,343,145.67,330.332,127,324.332,140.337Z" fill="none" stroke="#fff" stroke-miterlimit="10" stroke-width="1"/>
            <path id="Path_492" data-name="Path 492" d="M303.666,176.337s-15.334,1.333-20,5.333S281.665,191,289,195a28.265,28.265,0,0,1,14,16.666c2,6.667,8.666,4,12-6.666s3.333-16,10-28,10.667-18.667,7.333-24S321,158.337,317.666,165.67,305.666,175.67,303.666,176.337Z" fill="none" stroke="#fff" stroke-miterlimit="10" stroke-width="1"/>
            <path id="Path_493" data-name="Path 493" d="M293.666,185.67c-.667,3.334,4,8.667,7.333,10s8,4.667,10-2.666,6.667-9.334,4.667-13.334-6.667,1.333-12,2.667S294.054,183.73,293.666,185.67Z" fill="none" stroke="#fff" stroke-miterlimit="10" stroke-width="1"/>
          </g>
          <g id="Group_107" data-name="Group 107">
            <path id="Path_494" data-name="Path 494" d="M265.333,114.669c-4.667,12.667-18.667,18.667-28.667,26.667s-27.332,18-16.666,29.333,27.333,22.667,31.333,4.667S268,162,272,144.669s6.666-30,15.333-34S304,102,308,108s-2,18,7.333,14,15.333-20.666,29.333-20.666S372,102,374,93.336s-8-10-16.667-18S326.667,52.669,316,54.669s-28.667,10.667-34.667,22.667A369.624,369.624,0,0,0,265.333,114.669Z" fill="none" stroke="#fff" stroke-miterlimit="10" stroke-width="1"/>
            <path id="Path_495" data-name="Path 495" d="M253.333,135.336S232.666,150,228.666,156s-4,11.334,2,15.334S242,172,246,161.336s10.667-8.667,16-17.334S257.333,132.669,253.333,135.336Z" fill="none" stroke="#fff" stroke-miterlimit="10" stroke-width="1"/>
            <path id="Path_496" data-name="Path 496" d="M292.666,73.336c-5.333,6-13.333,20.666-10.666,26S297.333,94,306,98s4,18,9.333,14.667S322.666,100,332.666,97.336s29.334,1.333,30-6-9.333-10.667-17.333-16-18-11.334-24.667-12.667S298,67.336,292.666,73.336Z" fill="none" stroke="#fff" stroke-miterlimit="10" stroke-width="1"/>
            <path id="Path_497" data-name="Path 497" d="M306.666,72c-7.333,2.667-21.333,13.333-12,16.667S309.333,82,312,88.669s6,8,14,3.333,20,2,20.666-4-12-9.333-18-14S314,69.336,306.666,72Z" fill="none" stroke="#fff" stroke-miterlimit="10" stroke-width="1"/>
          </g>
          <g id="Group_108" data-name="Group 108">
            <path id="Path_498" data-name="Path 498" d="M386.666,101.336C379.333,104,369.333,112,362.666,120s1.333,16.667-1.333,28.667-12,36.667-12,47.333,4.666,15.334,10,30S370,261.336,364,273.336s1.333,30,15.333,14.666S412.667,256,402,246.669,375.333,219.336,380.666,200,402,141.335,402,122.669,394,98.669,386.666,101.336Z" fill="none" stroke="#fff" stroke-miterlimit="10" stroke-width="1"/>
            <path id="Path_499" data-name="Path 499" d="M386,112.669c-4.667,2.667-18.667,6.667-16.667,19.333s0,20-4,27.334-12,30-7.333,41.333,9.333,18.667,10.666,28.667,10.667,12,10,2-6.666-22.667-2-36,10-32,14.667-50S390.667,110,386,112.669Z" fill="none" stroke="#fff" stroke-miterlimit="10" stroke-width="1"/>
            <path id="Path_500" data-name="Path 500" d="M381.333,126c-2-2.666-6.667,4.667-6,16.667s-2.666,22-7.333,28-6,18-2.667,22.667,6-5.334,9.333-14,4.667-16.667,8-26S383.333,128.669,381.333,126Z" fill="none" stroke="#fff" stroke-miterlimit="10" stroke-width="1"/>
            <path id="Path_501" data-name="Path 501" d="M383.69,246.015c-1.676.576-4.241,5.924-5.03,11.5s-1.973,7.79-5.327,11.817-5.853,10.613-3.058,13.488,6.149,1.725,14.534-10.927,8.943-14.954,6.148-20.706S385.368,245.44,383.69,246.015Z" fill="none" stroke="#fff" stroke-miterlimit="10" stroke-width="1"/>
          </g>
          <path id="Path_502" data-name="Path 502" d="M416.666,258.669c-3.333,16-24.666,42-38.666,45.333s-34.667,25.334-30,43.334,18,17.333,28.666,5.333,28-28,43.334-31.333S461.333,318,475.333,312s30,1.334,49.334,17.334S552,360.67,560,350s8-18.667,12.667-36.667,14-25.333,6-36.667-12-16.666-2.667-36S600,198,604,184s10.668-32.667-.666-46-32-25.333-36.667-30S548,114,539.334,128.669,520,162,501.333,163.336s-31.333,0-34,15.333,1.334,30.667-13.333,48.667S420,242.669,416.666,258.669Z" fill="none" stroke="#fff" stroke-miterlimit="10" stroke-width="1"/>
          <path id="Path_503" data-name="Path 503" d="M492.667,187.336c-3.334,11.333-6.667,28-19.334,41.333s-34,14-39.333,28.667-19.334,38-30.667,45.333-42,42.667-24,34.667,32-24,50-26.667,28,2,43.334-7.333,30-15.333,44.666,3.333S542,350,553.334,338s20.667-38.667,16-50.667S554.666,267.336,560,250s26.666-40.667,34-59.334,7.334-40-5.333-52.666-31.333-28-37.333-10-20,44.667-31.334,46S496,176,492.667,187.336Z" fill="none" stroke="#fff" stroke-miterlimit="10" stroke-width="2"/>
          <path id="Path_504" data-name="Path 504" d="M501.333,217.336c2,14.666-22,27.333-36,32S446.667,260.67,440.667,272s-12,27.333,3.333,24,34.666-8,45.333-14.667,26,.667,32,12.667S532.666,333.336,544,332s20-21.334,17.334-34.667-18.666-30-12-44S576.667,208.67,582.667,200s14-33.334,6-46.667S562,116,560,129.336,556.667,168.67,546.667,176s-17.334,14.667-28,14S499.333,202.669,501.333,217.336Z" fill="none" stroke="#fff" stroke-miterlimit="10" stroke-width="1"/>
          <path id="Path_505" data-name="Path 505" d="M481.333,252c-7.546,4.312-19.333,10.667-24.666,14S444,278.669,450,283.336s20-8.667,29.333-8.667,14.667-2,16-11.333S490.667,246.669,481.333,252Z" fill="none" stroke="#fff" stroke-miterlimit="10" stroke-width="1"/>
          <path id="Path_506" data-name="Path 506" d="M528,284.669c1.334,8.667,4,17.334,6.667,28s4,16,10,10.667,11.333-14,7.333-26.667S546.667,272,540.667,271.336,526.666,276,528,284.669Z" fill="none" stroke="#fff" stroke-miterlimit="10" stroke-width="1"/>
          <path id="Path_507" data-name="Path 507" d="M565.334,148.669c-.667,10,.667,25.334-12,36S512.667,192,514,208.669s-3.333,40,6,46.667,20-16,30-24.667S578,203.336,582,188s1.334-18-2.666-30.667S566,138.669,565.334,148.669Z" fill="none" stroke="#fff" stroke-miterlimit="10" stroke-width="2"/>
          <path id="Path_508" data-name="Path 508" d="M575.334,165.336c4.666,3.333,0,10.667-.667,20S570,199.336,562,208s-18.666,15.333-25.333,22.666-10,.667-10.667-13.333,8.667-16,20-18.667,20-18,21.334-22.666S570.668,162,575.334,165.336Z" fill="none" stroke="#fff" stroke-miterlimit="10" stroke-width="1"/>
          <path id="Path_509" data-name="Path 509" d="M571.334,347.336s-3.334,14.667-12,18-4.666,16-.666,34.667,8,36,12.666,36.666-4-34,3.334-44.666,20-10.667,22-20S591.334,368.67,586,362.67s-4-16-6-22.667S571.334,338,571.334,347.336Z" fill="none" stroke="#fff" stroke-miterlimit="10" stroke-width="1"/>
        </g>
      </g>
    </g>
  </g>
</svg>
