<svg xmlns="http://www.w3.org/2000/svg" width="31.577" height="36.001" viewBox="0 0 31.577 36.001">
  <g id="support" transform="translate(-31.46)">
    <path id="Path_363" data-name="Path 363" d="M130.328,19.783l-7.044,1.832a2.692,2.692,0,0,1-1.329.007l-7.431-1.853a2.646,2.646,0,0,1-2.006-2.567V9.083A9.083,9.083,0,0,1,121.6,0h1.624a9.083,9.083,0,0,1,9.083,9.083v8.14A2.646,2.646,0,0,1,130.328,19.783Z" transform="translate(-75.358)" fill="#6c7a88"/>
    <path id="Path_364" data-name="Path 364" d="M227.4,0H225.78a9.168,9.168,0,0,0-1.2.079,9.084,9.084,0,0,1,7.879,9v8.14a2.646,2.646,0,0,1-1.98,2.56l-5.735,1.491,1.392.347a2.691,2.691,0,0,0,1.329-.007l7.044-1.832a2.646,2.646,0,0,0,1.98-2.56V9.083A9.083,9.083,0,0,0,227.4,0Z" transform="translate(-179.538)" fill="#596775"/>
    <g id="Group_108" data-name="Group 108" transform="translate(36.555 10.047)">
      <path id="Path_365" data-name="Path 365" d="M104.94,147.6h1.927v-4.705H104.94a1.025,1.025,0,0,0-1.025,1.025v2.655A1.025,1.025,0,0,0,104.94,147.6Z" transform="translate(-103.915 -142.892)" fill="#35404a"/>
      <path id="Path_366" data-name="Path 366" d="M368.021,147.6h-1.927v-4.705h1.927a1.025,1.025,0,0,1,1.025,1.025v2.655A1.025,1.025,0,0,1,368.021,147.6Z" transform="translate(-347.659 -142.892)" fill="#35404a"/>
    </g>
    <path id="Path_367" data-name="Path 367" d="M192.527,264.849a1.443,1.443,0,0,1-1.159-1.415V260.18h-6.386v3.254a1.443,1.443,0,0,1-1.159,1.415l-.778.156v5.225H193.3v-5.225Z" transform="translate(-140.926 -241.886)" fill="#fed9a8"/>
    <path id="Path_368" data-name="Path 368" d="M58.248,324.783l-6.4-2a.575.575,0,0,0-.567.132l-4.029,3.818-4.029-3.818a.575.575,0,0,0-.567-.132l-6.4,2a6.674,6.674,0,0,0-4.789,6.4v4.266a.615.615,0,0,0,.615.615H62.422a.615.615,0,0,0,.615-.615v-4.266A6.674,6.674,0,0,0,58.248,324.783Z" transform="translate(0 -300.065)" fill="#ff7300"/>
    <path id="Path_369" data-name="Path 369" d="M310.311,324.783l-6.4-2a.575.575,0,0,0-.567.132l-.753.714,3.693,1.152a6.674,6.674,0,0,1,4.789,6.4v4.881h3.416a.615.615,0,0,0,.615-.615v-4.266A6.674,6.674,0,0,0,310.311,324.783Z" transform="translate(-252.063 -300.065)" fill="#f16000"/>
    <path id="Path_370" data-name="Path 370" d="M150.772,58.625h0a7.959,7.959,0,0,1-7.959-7.959V48.43a7.959,7.959,0,0,1,7.959-7.959h0a7.959,7.959,0,0,1,7.959,7.959v2.237A7.959,7.959,0,0,1,150.772,58.625Z" transform="translate(-103.523 -37.625)" fill="#fed9a8"/>
    <path id="Path_371" data-name="Path 371" d="M233.28,55.2v9.16a7.962,7.962,0,0,1-5.943,7.7,7.972,7.972,0,0,0,2.015.258h0a7.959,7.959,0,0,0,7.959-7.959V62.123A7.955,7.955,0,0,0,233.28,55.2Z" transform="translate(-182.104 -51.319)" fill="#f4c892"/>
    <g id="Group_109" data-name="Group 109" transform="translate(39.984 22.695)">
      <path id="Path_372" data-name="Path 372" d="M155.925,322.918l4.029,3.818-2.485.846a1.588,1.588,0,0,1-1.706-.457l-3.073-3.507,2.669-.832A.575.575,0,0,1,155.925,322.918Z" transform="translate(-152.69 -322.761)" fill="#d85600"/>
      <path id="Path_373" data-name="Path 373" d="M260.029,322.918,256,326.736l2.252.767a1.955,1.955,0,0,0,2.1-.562l2.911-3.322-2.669-.832A.575.575,0,0,0,260.029,322.918Z" transform="translate(-248.736 -322.761)" fill="#d85600"/>
    </g>
    <path id="Path_374" data-name="Path 374" d="M128.782,432.208h-4.1a.412.412,0,0,1-.412-.412v-1.814a.412.412,0,0,1,.412-.412h4.1a.412.412,0,0,1,.412.412V431.8A.412.412,0,0,1,128.782,432.208Z" transform="translate(-86.288 -399.365)" fill="#ffa053"/>
    <path id="Path_375" data-name="Path 375" d="M132.307,10.76A5.632,5.632,0,0,1,127.7,7.329s-8.3,6.645-15.181,3.431V9.083A9.083,9.083,0,0,1,121.6,0h1.624a9.083,9.083,0,0,1,9.083,9.083Z" transform="translate(-75.358)" fill="#6c7a88"/>
    <path id="Path_376" data-name="Path 376" d="M227.4,0H225.78a9.168,9.168,0,0,0-1.2.079,9.085,9.085,0,0,1,7.855,8.33,5.868,5.868,0,0,0,4.056,2.351V9.083A9.083,9.083,0,0,0,227.4,0Z" transform="translate(-179.538)" fill="#596775"/>
    <g id="Group_110" data-name="Group 110" transform="translate(35.012 29.942)">
      <path id="Path_377" data-name="Path 377" d="M415.1,425.836a.544.544,0,0,0-.544.544v5.515h1.088V426.38A.544.544,0,0,0,415.1,425.836Z" transform="translate(-391.168 -425.836)" fill="#d85600"/>
      <path id="Path_378" data-name="Path 378" d="M82.523,425.836a.544.544,0,0,0-.544.544v5.515h1.088V426.38A.544.544,0,0,0,82.523,425.836Z" transform="translate(-81.979 -425.836)" fill="#d85600"/>
    </g>
    <path id="Path_379" data-name="Path 379" d="M274.789,209.813v.992a1.746,1.746,0,0,1-1.454,1.725l-5.472.938a.543.543,0,1,0,.184,1.071l5.472-.938a2.83,2.83,0,0,0,2.357-2.8v-.992Z" transform="translate(-219.36 -195.06)" fill="#35404a"/>
    <path id="Path_380" data-name="Path 380" d="M262.293,252.757a1.051,1.051,0,0,1-.176-2.088l1.773-.3a1.051,1.051,0,0,1,.355,2.072l-1.773.3A1.063,1.063,0,0,1,262.293,252.757Z" transform="translate(-213.625 -232.747)" fill="#f16000"/>
  </g>
</svg>
